<?xml version="1.0" encoding="UTF-8" standalone="no"?>
<!DOCTYPE svg PUBLIC "-//W3C//DTD SVG 1.1//EN"
 "http://www.w3.org/Graphics/SVG/1.1/DTD/svg11.dtd">
<!-- Generated by graphviz version 2.43.0 (0)
 -->
<!-- Title: %3 Pages: 1 -->
<svg width="1525pt" height="282pt"
 viewBox="0.00 0.00 1525.00 282.00" xmlns="http://www.w3.org/2000/svg" xmlns:xlink="http://www.w3.org/1999/xlink">
<g id="graph0" class="graph" transform="scale(1 1) rotate(0) translate(4 278)">
<title>%3</title>
<polygon fill="white" stroke="transparent" points="-4,4 -4,-278 1521,-278 1521,4 -4,4"/>
<g id="clust1" class="cluster">
<title>cluster_main</title>
<polygon fill="none" stroke="black" points="249,-8 249,-266 1509,-266 1509,-8 249,-8"/>
<text text-anchor="middle" x="879" y="-250.8" font-family="Times,serif" font-size="14.00">Clinic Calendar Web App</text>
<text text-anchor="middle" x="879" y="-235.8" font-family="Times,serif" font-size="14.00">React, JavaScript, HTML, CSS</text>
</g>
<g id="clust2" class="cluster">
<title>cluster_ui</title>
<polygon fill="none" stroke="black" points="883,-16 883,-220 1310,-220 1310,-16 883,-16"/>
<text text-anchor="middle" x="1096.5" y="-204.8" font-family="Times,serif" font-size="14.00">UI Components</text>
<text text-anchor="middle" x="1096.5" y="-189.8" font-family="Times,serif" font-size="14.00">React, JavaScript</text>
</g>
<g id="clust3" class="cluster">
<title>cluster_data</title>
<polygon fill="none" stroke="black" points="1393,-26 1393,-202 1501,-202 1501,-26 1393,-26"/>
<text text-anchor="middle" x="1447" y="-186.8" font-family="Times,serif" font-size="14.00">Local Data</text>
<text text-anchor="middle" x="1447" y="-171.8" font-family="Times,serif" font-size="14.00">JavaScript</text>
</g>
<!-- User -->
<g id="node1" class="node">
<title>User</title>
<polygon fill="none" stroke="black" points="121,-118 0,-118 0,-80 121,-80 121,-118"/>
<text text-anchor="middle" x="60.5" y="-102.8" font-family="Times,serif" font-size="14.00">User</text>
<text text-anchor="middle" x="60.5" y="-87.8" font-family="Times,serif" font-size="14.00">External Actor</text>
</g>
<!-- index.html -->
<g id="node2" class="node">
<title>index.html</title>
<polygon fill="none" stroke="black" points="344,-118 257,-118 257,-80 350,-80 350,-112 344,-118"/>
<polyline fill="none" stroke="black" points="344,-118 344,-112 "/>
<polyline fill="none" stroke="black" points="350,-112 344,-112 "/>
<text text-anchor="middle" x="303.5" y="-102.8" font-family="Times,serif" font-size="14.00">index.html</text>
<text text-anchor="middle" x="303.5" y="-87.8" font-family="Times,serif" font-size="14.00">HTML</text>
</g>
<!-- User&#45;&gt;index.html -->
<g id="edge9" class="edge">
<title>User&#45;&gt;index.html</title>
<path fill="none" stroke="black" d="M121.07,-99C159.42,-99 208.95,-99 246.56,-99"/>
<polygon fill="black" stroke="black" points="246.84,-102.5 256.84,-99 246.84,-95.5 246.84,-102.5"/>
<text text-anchor="middle" x="189" y="-102.8" font-family="Times,serif" font-size="14.00">interacts with</text>
</g>
<!-- index.js -->
<g id="node3" class="node">
<title>index.js</title>
<polygon fill="none" stroke="black" points="558,-118 424,-118 424,-80 564,-80 564,-112 558,-118"/>
<polyline fill="none" stroke="black" points="558,-118 558,-112 "/>
<polyline fill="none" stroke="black" points="564,-112 558,-112 "/>
<text text-anchor="middle" x="494" y="-102.8" font-family="Times,serif" font-size="14.00">index.js</text>
<text text-anchor="middle" x="494" y="-87.8" font-family="Times,serif" font-size="14.00">React, JavaScript</text>
</g>
<!-- index.html&#45;&gt;index.js -->
<g id="edge4" class="edge">
<title>index.html&#45;&gt;index.js</title>
<path fill="none" stroke="black" d="M350.13,-99C369.23,-99 391.99,-99 413.67,-99"/>
<polygon fill="black" stroke="black" points="413.87,-102.5 423.87,-99 413.87,-95.5 413.87,-102.5"/>
<text text-anchor="middle" x="387" y="-102.8" font-family="Times,serif" font-size="14.00">loads</text>
</g>
<!-- App.js -->
<g id="node4" class="node">
<title>App.js</title>
<polygon fill="none" stroke="black" points="790,-118 656,-118 656,-80 796,-80 796,-112 790,-118"/>
<polyline fill="none" stroke="black" points="790,-118 790,-112 "/>
<polyline fill="none" stroke="black" points="796,-112 790,-112 "/>
<text text-anchor="middle" x="726" y="-102.8" font-family="Times,serif" font-size="14.00">App.js</text>
<text text-anchor="middle" x="726" y="-87.8" font-family="Times,serif" font-size="14.00">React, JavaScript</text>
</g>
<!-- index.js&#45;&gt;App.js -->
<g id="edge5" class="edge">
<title>index.js&#45;&gt;App.js</title>
<path fill="none" stroke="black" d="M564.01,-99C589.7,-99 619.07,-99 645.62,-99"/>
<polygon fill="black" stroke="black" points="645.64,-102.5 655.64,-99 645.64,-95.5 645.64,-102.5"/>
<text text-anchor="middle" x="610" y="-102.8" font-family="Times,serif" font-size="14.00">renders</text>
</g>
<!-- LoginForm -->
<g id="node5" class="node">
<title>LoginForm</title>
<polygon fill="none" stroke="black" points="1031,-62 891,-62 891,-58 887,-58 887,-54 891,-54 891,-32 887,-32 887,-28 891,-28 891,-24 1031,-24 1031,-62"/>
<polyline fill="none" stroke="black" points="891,-58 895,-58 895,-54 891,-54 "/>
<polyline fill="none" stroke="black" points="891,-32 895,-32 895,-28 891,-28 "/>
<text text-anchor="middle" x="961" y="-46.8" font-family="Times,serif" font-size="14.00">LoginForm.jsx</text>
<text text-anchor="middle" x="961" y="-31.8" font-family="Times,serif" font-size="14.00">React, JavaScript</text>
</g>
<!-- App.js&#45;&gt;LoginForm -->
<g id="edge6" class="edge">
<title>App.js&#45;&gt;LoginForm</title>
<path fill="none" stroke="black" d="M796.28,-82.35C822.92,-75.95 853.53,-68.59 881.02,-61.98"/>
<polygon fill="black" stroke="black" points="882.08,-65.33 890.99,-59.59 880.45,-58.52 882.08,-65.33"/>
<text text-anchor="middle" x="843.5" y="-80.8" font-family="Times,serif" font-size="14.00">displays</text>
</g>
<!-- CalendarView -->
<g id="node6" class="node">
<title>CalendarView</title>
<polygon fill="none" stroke="black" points="1031,-118 891,-118 891,-114 887,-114 887,-110 891,-110 891,-88 887,-88 887,-84 891,-84 891,-80 1031,-80 1031,-118"/>
<polyline fill="none" stroke="black" points="891,-114 895,-114 895,-110 891,-110 "/>
<polyline fill="none" stroke="black" points="891,-88 895,-88 895,-84 891,-84 "/>
<text text-anchor="middle" x="961" y="-102.8" font-family="Times,serif" font-size="14.00">CalendarView.jsx</text>
<text text-anchor="middle" x="961" y="-87.8" font-family="Times,serif" font-size="14.00">React, JavaScript</text>
</g>
<!-- App.js&#45;&gt;CalendarView -->
<g id="edge7" class="edge">
<title>App.js&#45;&gt;CalendarView</title>
<path fill="none" stroke="black" d="M796.28,-99C822.8,-99 853.26,-99 880.65,-99"/>
<polygon fill="black" stroke="black" points="880.99,-102.5 890.99,-99 880.99,-95.5 880.99,-102.5"/>
<text text-anchor="middle" x="843.5" y="-102.8" font-family="Times,serif" font-size="14.00">displays</text>
</g>
<!-- Header -->
<g id="node8" class="node">
<title>Header</title>
<polygon fill="none" stroke="black" points="1031,-174 891,-174 891,-170 887,-170 887,-166 891,-166 891,-144 887,-144 887,-140 891,-140 891,-136 1031,-136 1031,-174"/>
<polyline fill="none" stroke="black" points="891,-170 895,-170 895,-166 891,-166 "/>
<polyline fill="none" stroke="black" points="891,-144 895,-144 895,-140 891,-140 "/>
<text text-anchor="middle" x="961" y="-158.8" font-family="Times,serif" font-size="14.00">Header.jsx</text>
<text text-anchor="middle" x="961" y="-143.8" font-family="Times,serif" font-size="14.00">React, JavaScript</text>
</g>
<!-- App.js&#45;&gt;Header -->
<g id="edge8" class="edge">
<title>App.js&#45;&gt;Header</title>
<path fill="none" stroke="black" d="M796.28,-115.65C822.92,-122.05 853.53,-129.41 881.02,-136.02"/>
<polygon fill="black" stroke="black" points="880.45,-139.48 890.99,-138.41 882.08,-132.67 880.45,-139.48"/>
<text text-anchor="middle" x="843.5" y="-136.8" font-family="Times,serif" font-size="14.00">uses</text>
</g>
<!-- AppointmentForm -->
<g id="node7" class="node">
<title>AppointmentForm</title>
<polygon fill="none" stroke="black" points="1302,-118 1131,-118 1131,-114 1127,-114 1127,-110 1131,-110 1131,-88 1127,-88 1127,-84 1131,-84 1131,-80 1302,-80 1302,-118"/>
<polyline fill="none" stroke="black" points="1131,-114 1135,-114 1135,-110 1131,-110 "/>
<polyline fill="none" stroke="black" points="1131,-88 1135,-88 1135,-84 1131,-84 "/>
<text text-anchor="middle" x="1216.5" y="-102.8" font-family="Times,serif" font-size="14.00">AppointmentForm.jsx</text>
<text text-anchor="middle" x="1216.5" y="-87.8" font-family="Times,serif" font-size="14.00">React, JavaScript</text>
</g>
<!-- CalendarView&#45;&gt;AppointmentForm -->
<g id="edge1" class="edge">
<title>CalendarView&#45;&gt;AppointmentForm</title>
<path fill="none" stroke="black" d="M1031.27,-99C1058.81,-99 1090.94,-99 1120.59,-99"/>
<polygon fill="black" stroke="black" points="1120.96,-102.5 1130.96,-99 1120.96,-95.5 1120.96,-102.5"/>
<text text-anchor="middle" x="1081" y="-102.8" font-family="Times,serif" font-size="14.00">manages</text>
</g>
<!-- doctors -->
<g id="node9" class="node">
<title>doctors</title>
<path fill="none" stroke="black" d="M1492,-81.48C1492,-84.11 1471.83,-86.25 1447,-86.25 1422.17,-86.25 1402,-84.11 1402,-81.48 1402,-81.48 1402,-38.52 1402,-38.52 1402,-35.89 1422.17,-33.75 1447,-33.75 1471.83,-33.75 1492,-35.89 1492,-38.52 1492,-38.52 1492,-81.48 1492,-81.48"/>
<path fill="none" stroke="black" d="M1492,-81.48C1492,-78.84 1471.83,-76.7 1447,-76.7 1422.17,-76.7 1402,-78.84 1402,-81.48"/>
<text text-anchor="middle" x="1447" y="-63.8" font-family="Times,serif" font-size="14.00">doctors.js</text>
<text text-anchor="middle" x="1447" y="-48.8" font-family="Times,serif" font-size="14.00">JavaScript</text>
</g>
<!-- AppointmentForm&#45;&gt;doctors -->
<g id="edge2" class="edge">
<title>AppointmentForm&#45;&gt;doctors</title>
<path fill="none" stroke="black" d="M1302.26,-84.53C1332.22,-79.42 1365.08,-73.81 1391.81,-69.25"/>
<polygon fill="black" stroke="black" points="1392.47,-72.69 1401.74,-67.55 1391.29,-65.79 1392.47,-72.69"/>
<text text-anchor="middle" x="1351.5" y="-83.8" font-family="Times,serif" font-size="14.00">accesses</text>
</g>
<!-- patients -->
<g id="node10" class="node">
<title>patients</title>
<path fill="none" stroke="black" d="M1493,-151.48C1493,-154.11 1472.38,-156.25 1447,-156.25 1421.62,-156.25 1401,-154.11 1401,-151.48 1401,-151.48 1401,-108.52 1401,-108.52 1401,-105.89 1421.62,-103.75 1447,-103.75 1472.38,-103.75 1493,-105.89 1493,-108.52 1493,-108.52 1493,-151.48 1493,-151.48"/>
<path fill="none" stroke="black" d="M1493,-151.48C1493,-148.84 1472.38,-146.7 1447,-146.7 1421.62,-146.7 1401,-148.84 1401,-151.48"/>
<text text-anchor="middle" x="1447" y="-133.8" font-family="Times,serif" font-size="14.00">patients.js</text>
<text text-anchor="middle" x="1447" y="-118.8" font-family="Times,serif" font-size="14.00">JavaScript</text>
</g>
<!-- AppointmentForm&#45;&gt;patients -->
<g id="edge3" class="edge">
<title>AppointmentForm&#45;&gt;patients</title>
<path fill="none" stroke="black" d="M1302.26,-110.5C1331.75,-114.5 1364.05,-118.88 1390.55,-122.48"/>
<polygon fill="black" stroke="black" points="1390.4,-125.99 1400.78,-123.86 1391.34,-119.05 1390.4,-125.99"/>
<text text-anchor="middle" x="1351.5" y="-123.8" font-family="Times,serif" font-size="14.00">accesses</text>
</g>
</g>
</svg>
